<svg xmlns="http://www.w3.org/2000/svg" class="h-full md:w-72 w-52" viewBox="0 0 86.241 30.365"><path id="Path_3" data-name="Path 3" d="M-1224.458,696.575a2.653,2.653,0,0,1,1.273.295,2.175,2.175,0,0,1,.842.775v-.971h2.1v6.851a3.85,3.85,0,0,1-.376,1.716,2.848,2.848,0,0,1-1.144,1.223,3.694,3.694,0,0,1-1.912.455,3.99,3.99,0,0,1-2.473-.718,2.725,2.725,0,0,1-1.082-1.951h2.079a.994.994,0,0,0,.466.621,1.71,1.71,0,0,0,.911.228,1.432,1.432,0,0,0,1.04-.376,1.609,1.609,0,0,0,.387-1.2v-.973a2.327,2.327,0,0,1-.847.782,2.564,2.564,0,0,1-1.267.3A2.81,2.81,0,0,1-1226,703.2a3.015,3.015,0,0,1-1.089-1.243,4.136,4.136,0,0,1-.4-1.862,4.1,4.1,0,0,1,.4-1.857,2.978,2.978,0,0,1,1.089-1.23A2.833,2.833,0,0,1-1224.458,696.575Zm-19.8,3.419a5.288,5.288,0,0,1-.037.614h-4.761a1.431,1.431,0,0,0,.413.978,1.256,1.256,0,0,0,.891.339,1.1,1.1,0,0,0,1.094-.664h2.238a3.094,3.094,0,0,1-.62,1.218,3.127,3.127,0,0,1-1.126.847,3.619,3.619,0,0,1-1.513.309,3.69,3.69,0,0,1-1.8-.431,3.058,3.058,0,0,1-1.23-1.23,3.784,3.784,0,0,1-.443-1.869,3.833,3.833,0,0,1,.436-1.869,3.012,3.012,0,0,1,1.225-1.23,3.693,3.693,0,0,1,1.807-.431,3.665,3.665,0,0,1,1.771.418,3,3,0,0,1,1.213,1.193A3.615,3.615,0,0,1-1244.262,699.994Zm-19.532,3.642a3.8,3.8,0,0,1-1.815-.431,3.148,3.148,0,0,1-1.267-1.23,3.679,3.679,0,0,1-.461-1.869,3.652,3.652,0,0,1,.466-1.864,3.179,3.179,0,0,1,1.28-1.236,3.821,3.821,0,0,1,1.82-.431,3.823,3.823,0,0,1,1.822.431,3.165,3.165,0,0,1,1.278,1.236,3.637,3.637,0,0,1,.468,1.864,3.6,3.6,0,0,1-.473,1.862,3.2,3.2,0,0,1-1.292,1.237A3.873,3.873,0,0,1-1263.794,703.636Zm32.018,0a3.8,3.8,0,0,1-1.815-.431,3.159,3.159,0,0,1-1.267-1.23,3.678,3.678,0,0,1-.461-1.869,3.637,3.637,0,0,1,.468-1.864,3.164,3.164,0,0,1,1.278-1.236,3.822,3.822,0,0,1,1.822-.431,3.815,3.815,0,0,1,1.82.431,3.168,3.168,0,0,1,1.28,1.236,3.654,3.654,0,0,1,.468,1.864,3.6,3.6,0,0,1-.475,1.862,3.211,3.211,0,0,1-1.29,1.237A3.876,3.876,0,0,1-1231.776,703.636Zm-27.727-3.543a4.1,4.1,0,0,1,.4-1.857,2.966,2.966,0,0,1,1.089-1.23,2.833,2.833,0,0,1,1.538-.431,2.7,2.7,0,0,1,1.236.282,2.262,2.262,0,0,1,.879.763v-3.186h2.1v9.1h-2.1v-.985a2.122,2.122,0,0,1-.842.787,2.632,2.632,0,0,1-1.273.3,2.811,2.811,0,0,1-1.538-.438,3,3,0,0,1-1.089-1.243A4.138,4.138,0,0,1-1259.5,700.093Zm-17.146-.886a4.646,4.646,0,0,1,.552-2.282,3.955,3.955,0,0,1,1.545-1.56,4.472,4.472,0,0,1,2.245-.561,4.305,4.305,0,0,1,2.632.812,3.9,3.9,0,0,1,1.463,2.215h-2.312a1.87,1.87,0,0,0-.733-.824,2.057,2.057,0,0,0-1.077-.284,2,2,0,0,0-1.573.678,2.614,2.614,0,0,0-.6,1.808,2.614,2.614,0,0,0,.6,1.808,2,2,0,0,0,1.573.678,2.057,2.057,0,0,0,1.077-.284,1.875,1.875,0,0,0,.733-.823h2.312a3.868,3.868,0,0,1-1.463,2.206,4.313,4.313,0,0,1-2.632.807,4.49,4.49,0,0,1-2.245-.56,3.981,3.981,0,0,1-1.545-1.557A4.6,4.6,0,0,1-1276.649,699.207Zm40.9-4.305-2.989,5.781v2.854h-2.1v-2.854l-2.988-5.781h2.387l1.672,3.617,1.661-3.617Zm19.14,1.772v6.863h-2.1v-6.863Zm-15.167,5.14a1.37,1.37,0,0,0,1.027-.443,1.758,1.758,0,0,0,.424-1.266,1.8,1.8,0,0,0-.411-1.268,1.337,1.337,0,0,0-1.015-.443,1.338,1.338,0,0,0-1.022.438,1.8,1.8,0,0,0-.406,1.273,1.824,1.824,0,0,0,.4,1.266A1.289,1.289,0,0,0-1231.776,701.814Zm-32.018,0a1.364,1.364,0,0,0,1.026-.443,1.75,1.75,0,0,0,.425-1.266,1.791,1.791,0,0,0-.413-1.268,1.331,1.331,0,0,0-1.015-.443,1.334,1.334,0,0,0-1.02.438,1.8,1.8,0,0,0-.406,1.273,1.825,1.825,0,0,0,.4,1.266A1.29,1.29,0,0,0-1263.794,701.814Zm9.433-1.709a1.717,1.717,0,0,0-.436-1.243,1.419,1.419,0,0,0-1.064-.455,1.432,1.432,0,0,0-1.064.448,1.7,1.7,0,0,0-.436,1.237,1.74,1.74,0,0,0,.436,1.248,1.412,1.412,0,0,0,1.064.461,1.424,1.424,0,0,0,1.064-.454A1.72,1.72,0,0,0-1254.361,700.105Zm32.018,0a1.718,1.718,0,0,0-.436-1.243,1.419,1.419,0,0,0-1.064-.455,1.426,1.426,0,0,0-1.063.448,1.7,1.7,0,0,0-.438,1.237,1.741,1.741,0,0,0,.438,1.248,1.405,1.405,0,0,0,1.063.461,1.424,1.424,0,0,0,1.064-.454A1.721,1.721,0,0,0-1222.343,700.105Zm-24.071-.665a1.075,1.075,0,0,0-.371-.86,1.353,1.353,0,0,0-.921-.319,1.322,1.322,0,0,0-.891.307,1.37,1.37,0,0,0-.45.872Zm28.542-3.347a1.276,1.276,0,0,1-.9-.325,1.06,1.06,0,0,1-.35-.807,1.069,1.069,0,0,1,.35-.817,1.277,1.277,0,0,1,.9-.327,1.255,1.255,0,0,1,.891.327,1.064,1.064,0,0,1,.351.817,1.055,1.055,0,0,1-.351.807A1.254,1.254,0,0,1-1217.872,696.092Zm-66.944,15.167a6.921,6.921,0,0,1-4.812-2.126l-.276-.271v0a1.194,1.194,0,0,1-.359-.894,1.2,1.2,0,0,1,1.239-1.162,1.2,1.2,0,0,1,.782.323h0l.038.037.257.252a4.551,4.551,0,0,0,3.141,1.44h.024l.1,0a2.577,2.577,0,0,0,2.564-2.529c0-.007,0-.034,0-.039a2.578,2.578,0,0,0-2.4-2.687c-.106-.011-.214-.017-.323-.018h-.025a4.659,4.659,0,0,0-3,1.245c-.707.609-1.292,1.119-1.773,1.544a.114.114,0,0,1-.025.028c-.427.374-.789.7-1.1.97-.01.009-1.366,1.21-2.375,2.078a7.038,7.038,0,0,1-4.512,1.827h-.039a5.751,5.751,0,0,1-.613-.031,4.905,4.905,0,0,1-4.552-5.126c0-.018,0-.081,0-.092a4.906,4.906,0,0,1,4.87-4.826,6.852,6.852,0,0,1,5.039,2.122l.276.271v0a1.2,1.2,0,0,1,.359.894,1.2,1.2,0,0,1-1.177,1.163h-.062a1.2,1.2,0,0,1-.782-.324h0l-.037-.037-.258-.252a4.561,4.561,0,0,0-3.115-1.44h-.025c-.041,0-.083,0-.123,0a2.577,2.577,0,0,0-2.565,2.528c0,.007,0,.034,0,.039a2.577,2.577,0,0,0,2.4,2.687c.115.011.231.018.349.018h.026a4.672,4.672,0,0,0,2.975-1.245c.707-.609,1.291-1.119,1.773-1.544a.121.121,0,0,1,.024-.029c.427-.374.79-.7,1.1-.97.01-.009,1.366-1.21,2.375-2.078a7.028,7.028,0,0,1,4.551-1.827h.039a5.739,5.739,0,0,1,.574.031,4.9,4.9,0,0,1,4.552,5.126c0,.018,0,.081,0,.092a4.906,4.906,0,0,1-4.87,4.826c-.063,0-.126,0-.19,0Zm-6.45-21.575a1.2,1.2,0,0,1,.9.414l6.154,7.08.911-1.351a1.2,1.2,0,0,1,1-.531h.015a1.2,1.2,0,0,1,.659.205,1.206,1.206,0,0,1,.325,1.673l-1.787,2.65a1.19,1.19,0,0,1-.142.174l-.026.025-.043.039a1.2,1.2,0,0,1-.774.295h-.014a1.2,1.2,0,0,1-.912-.414l-6.282-7.226-6.281,7.226a1.2,1.2,0,0,1-.9.414h-.014a1.2,1.2,0,0,1-.788-.295l-.043-.039-.026-.025a1.167,1.167,0,0,1-.142-.174l-1.787-2.65a1.205,1.205,0,0,1,.325-1.673,1.2,1.2,0,0,1,.673-.205h.015a1.2,1.2,0,0,1,.985.531l.911,1.351,6.155-7.08a1.2,1.2,0,0,1,.916-.414Zm.01-8.774h-.026a4.007,4.007,0,0,0-4,4,4.006,4.006,0,0,0,4,4h.026a4.006,4.006,0,0,0,3.979-4A4.006,4.006,0,0,0-1291.256,680.911Z" transform="translate(1302.85 -680.91)" fill="#fff" fill-rule="evenodd"/></svg>